<?xml version="1.0" encoding="UTF-8" standalone="no"?>
<svg width="14px" height="14px" viewBox="0 0 14 14" version="1.1" xmlns="http://www.w3.org/2000/svg" xmlns:xlink="http://www.w3.org/1999/xlink" xmlns:sketch="http://www.bohemiancoding.com/sketch/ns">
    <!-- Generator: Sketch 3.5.2 (25235) - http://www.bohemiancoding.com/sketch -->
    <title>Slice 1</title>
    <desc>Created with Sketch.</desc>
    <defs></defs>
    <g id="Page-1" stroke="none" stroke-width="1" fill="none" fill-rule="evenodd" sketch:type="MSPage">
        <g id="icon_issue_close" sketch:type="MSLayerGroup" fill="#BD2C00">
            <g id="Page-1" sketch:type="MSShapeGroup">
                <path d="M7,1.3 C10.14,1.3 12.7,3.86 12.7,7 C12.7,10.14 10.14,12.7 7,12.7 C3.86,12.7 1.3,10.14 1.3,7 C1.3,3.86 3.86,1.3 7,1.3 L7,1.3 L7,1.3 Z M7,0 C3.14,0 0,3.14 0,7 C0,10.86 3.14,14 7,14 C10.86,14 14,10.86 14,7 C14,3.14 10.86,0 7,0 L7,0 L7,0 Z M8,3 L6,3 L6,8 L8,8 L8,3 L8,3 L8,3 Z M8,9 L6,9 L6,11 L8,11 L8,9 L8,9 L8,9 Z" id="Shape"></path>
            </g>
        </g>
    </g>
</svg>